<svg xmlns="http://www.w3.org/2000/svg" viewBox="0 0 434.94 105.33"><defs><style>.cls-1{fill:#2e2a25;}.cls-2,.cls-3{fill:#cc003d;}.cls-3{stroke:#cc1f40;stroke-miterlimit:10;stroke-width:0.5px;}</style></defs><title>logo</title><g id="Layer_2" data-name="Layer 2"><g id="Layer_1-2" data-name="Layer 1"><polygon class="cls-1" points="39.02 51.68 92.28 0 60.94 0 6.78 52.9 66.91 105.33 100.77 105.33 39.02 51.68"/><polygon class="cls-2" points="0 0 0 39.83 41.8 0 0 0"/><path class="cls-2" d="M127.86,91.21l5.9-14.74a.58.58,0,0,1,.52-.4H136a.53.53,0,0,1,.52.4l5.9,14.74c.07.14.07.25,0,.33a.37.37,0,0,1-.3.12h-2.28a.53.53,0,0,1-.52-.38l-1-2.52h-6.42l-1,2.52a.53.53,0,0,1-.52.38h-2.3Q127.67,91.65,127.86,91.21Zm7.3-11.11L132.92,86h4.43Z"/><path class="cls-2" d="M154.65,76.6V91.13a.48.48,0,0,1-.52.53h-.92a3.64,3.64,0,0,1-.71-.06.49.49,0,0,1-.36-.43c0-.23-.09-.48-.15-.75a3.44,3.44,0,0,1-1.16,1.1,3.57,3.57,0,0,1-1.7.35,4.56,4.56,0,0,1-2-.42,4.86,4.86,0,0,1-1.54-1.13,5.06,5.06,0,0,1-1-1.69,6.23,6.23,0,0,1,0-4.15,5.29,5.29,0,0,1,1-1.69,4.61,4.61,0,0,1,1.55-1.14,4.75,4.75,0,0,1,2-.42,3.19,3.19,0,0,1,1.59.34,3.61,3.61,0,0,1,1,.88V76.6q0-.53.54-.53H154a.66.66,0,0,1,.42.15A.46.46,0,0,1,154.65,76.6Zm-2.59,10a3.12,3.12,0,0,0-.19-1.08,2.86,2.86,0,0,0-.51-.89,2.37,2.37,0,0,0-.78-.6,2.34,2.34,0,0,0-1-.22,2.45,2.45,0,0,0-1.06.22,2.23,2.23,0,0,0-.78.6,2.68,2.68,0,0,0-.48.89,3.48,3.48,0,0,0-.17,1.08,3.38,3.38,0,0,0,.17,1.07,2.7,2.7,0,0,0,.48.88,2.24,2.24,0,0,0,.78.6,2.47,2.47,0,0,0,1.06.22,2.3,2.3,0,0,0,1-.22,2.57,2.57,0,0,0,.79-.59,2.67,2.67,0,0,0,.52-.87,3,3,0,0,0,.19-1.07Z"/><path class="cls-2" d="M160.38,81.82l2.07,5.8,2-5.82a.72.72,0,0,1,.71-.46h1.86q.56,0,.56.48a.47.47,0,0,1,0,.17.47.47,0,0,0,0,.11L164,91a1.6,1.6,0,0,1-.28.45.58.58,0,0,1-.45.2h-1.55a.59.59,0,0,1-.54-.27,3.85,3.85,0,0,1-.29-.59l-1.71-4.24q-.44-1.07-.89-2.21t-.89-2.16L157.3,82a.78.78,0,0,1,0-.2c0-.31.18-.46.54-.46h1.9A.65.65,0,0,1,160.38,81.82Z"/><path class="cls-2" d="M178.08,91.08q0-.21-.06-.35c0-.09,0-.21-.06-.35-.13.18-.27.36-.42.55a2.38,2.38,0,0,1-.54.47,2.94,2.94,0,0,1-.73.33,3.51,3.51,0,0,1-1,.13h0a5,5,0,0,1-2-.41,4.76,4.76,0,0,1-1.6-1.13,5.29,5.29,0,0,1-1-1.69,5.73,5.73,0,0,1-.38-2.1,6,6,0,0,1,.37-2.11,5,5,0,0,1,1-1.69,4.84,4.84,0,0,1,1.6-1.12,5.07,5.07,0,0,1,2.06-.41,2.93,2.93,0,0,1,1.73.44,5.38,5.38,0,0,1,1.1,1l.21-.8a1.15,1.15,0,0,1,.19-.47.53.53,0,0,1,.4-.12l1.17,0a.63.63,0,0,1,.42.16.51.51,0,0,1,.19.41v9.22a.45.45,0,0,1-.19.39.69.69,0,0,1-.42.14h-1.34a.5.5,0,0,1-.43-.16A1,1,0,0,1,178.08,91.08Zm-5.21-4.54a3.26,3.26,0,0,0,.18,1.09,2.63,2.63,0,0,0,.51.88,2.35,2.35,0,0,0,.79.59,2.44,2.44,0,0,0,1,.21,2.32,2.32,0,0,0,1.85-.79,2.9,2.9,0,0,0,.68-2,3.48,3.48,0,0,0-.17-1.08,2.6,2.6,0,0,0-.5-.9,2.51,2.51,0,0,0-2.9-.61,2.29,2.29,0,0,0-.79.61,2.85,2.85,0,0,0-.5.89A3.19,3.19,0,0,0,172.87,86.55Z"/><path class="cls-2" d="M186.55,81.34a.85.85,0,0,1,.47.1.67.67,0,0,1,.24.29,1.87,1.87,0,0,1,.13.43q0,.24.1.51a5,5,0,0,1,1.3-1,3.66,3.66,0,0,1,1.84-.46,4.47,4.47,0,0,1,1.74.31,3.74,3.74,0,0,1,1.28.86,3.63,3.63,0,0,1,.79,1.31,5,5,0,0,1,.27,1.67v5.78a.5.5,0,0,1-.13.4.57.57,0,0,1-.38.11h-1.92c-.22,0-.36,0-.41-.09a.69.69,0,0,1-.07-.39V85.86a1.81,1.81,0,0,0-.54-1.38,1.95,1.95,0,0,0-2.06-.37,2.87,2.87,0,0,0-.68.39,2.34,2.34,0,0,0-.53.58,1.85,1.85,0,0,0-.28.71v5.4a.49.49,0,0,1-.1.37.65.65,0,0,1-.42.09H185.3a.56.56,0,0,1-.41-.11.53.53,0,0,1-.09-.36V82a.56.56,0,0,1,.63-.63Z"/><path class="cls-2" d="M203.68,89.28a3.53,3.53,0,0,0,1.09-.19q.46-.17,1-.4a.81.81,0,0,1,.29-.11c.1,0,.2.08.31.23l.9,1.29a.66.66,0,0,1,.08.23.36.36,0,0,1-.13.29l-.23.19a7.26,7.26,0,0,1-1.51.76,4.91,4.91,0,0,1-1.72.3,5.19,5.19,0,0,1-2.08-.42,5.48,5.48,0,0,1-1.7-1.14,5.4,5.4,0,0,1-1.15-5.89,5.37,5.37,0,0,1,2.86-2.88,5.19,5.19,0,0,1,2.08-.42,4.7,4.7,0,0,1,1.61.27,7.69,7.69,0,0,1,1.51.76h0a1.14,1.14,0,0,1,.27.23.45.45,0,0,1,.1.29.9.9,0,0,1,0,.12.2.2,0,0,1-.05.12l-.82,1.41a.38.38,0,0,1-.14.15.35.35,0,0,1-.2.06.92.92,0,0,1-.33-.15,2.77,2.77,0,0,0-.88-.47,3.16,3.16,0,0,0-1-.18,2.55,2.55,0,0,0-1.09.23,2.76,2.76,0,0,0-.87.62,2.91,2.91,0,0,0-.58.91,2.87,2.87,0,0,0-.21,1.09,2.59,2.59,0,0,0,2.66,2.7Z"/><path class="cls-2" d="M215.71,89.4a2.43,2.43,0,0,0,.9-.13,5.12,5.12,0,0,0,.86-.38,2.28,2.28,0,0,0,.31-.19.48.48,0,0,1,.27-.1.37.37,0,0,1,.31.19l.77,1.24a.56.56,0,0,1,.11.27.4.4,0,0,1-.11.28,2.36,2.36,0,0,1-.23.22,5.78,5.78,0,0,1-1.45.8,4.75,4.75,0,0,1-1.68.29,5.13,5.13,0,0,1-2.06-.42A5.37,5.37,0,0,1,212,90.34a5.51,5.51,0,0,1-1.15-1.71,5.33,5.33,0,0,1,0-4.17A5.72,5.72,0,0,1,212,82.74a5.31,5.31,0,0,1,1.65-1.18,4.78,4.78,0,0,1,2-.43,4.87,4.87,0,0,1,1.9.38,5.15,5.15,0,0,1,1.58,1,4.78,4.78,0,0,1,1.07,1.52,4.53,4.53,0,0,1,.39,1.86,3.72,3.72,0,0,1-.14,1.19.57.57,0,0,1-.6.37h-6.51a1.78,1.78,0,0,0,.27.82,2.34,2.34,0,0,0,.57.61,2.39,2.39,0,0,0,.74.38A2.65,2.65,0,0,0,215.71,89.4Zm-2.36-4h4.5a1.88,1.88,0,0,0-.68-1.35,2.31,2.31,0,0,0-1.58-.56,2.08,2.08,0,0,0-.75.15,2.45,2.45,0,0,0-.69.41,2.32,2.32,0,0,0-.52.61A2.11,2.11,0,0,0,213.35,85.44Z"/><path class="cls-2" d="M234,76.6V91.13a.48.48,0,0,1-.52.53h-.92a3.62,3.62,0,0,1-.71-.06.49.49,0,0,1-.36-.43c0-.23-.09-.48-.15-.75a3.45,3.45,0,0,1-1.16,1.1,3.57,3.57,0,0,1-1.7.35,4.57,4.57,0,0,1-2-.42A4.86,4.86,0,0,1,225,90.31a5.07,5.07,0,0,1-1-1.69,6.22,6.22,0,0,1,0-4.15,5.3,5.3,0,0,1,1-1.69,4.61,4.61,0,0,1,1.55-1.14,4.76,4.76,0,0,1,2-.42,3.19,3.19,0,0,1,1.59.34,3.62,3.62,0,0,1,1,.88V76.6q0-.53.54-.53h1.71a.66.66,0,0,1,.42.15A.46.46,0,0,1,234,76.6Zm-2.59,10a3.12,3.12,0,0,0-.19-1.08,2.87,2.87,0,0,0-.51-.89A2.37,2.37,0,0,0,230,84a2.33,2.33,0,0,0-1-.22,2.45,2.45,0,0,0-1.06.22,2.23,2.23,0,0,0-.78.6,2.66,2.66,0,0,0-.48.89,3.46,3.46,0,0,0-.17,1.08,3.37,3.37,0,0,0,.17,1.07,2.68,2.68,0,0,0,.48.88,2.24,2.24,0,0,0,.78.6,2.46,2.46,0,0,0,1.06.22,2.3,2.3,0,0,0,1-.22,2.56,2.56,0,0,0,.79-.59,2.67,2.67,0,0,0,.52-.87,3,3,0,0,0,.19-1.07Z"/><path class="cls-3" d="M245.91,91.23V76.49c0-.28.13-.42.4-.42h6.09a4.46,4.46,0,0,1,1.95.42,5,5,0,0,1,1.53,1.12,5.12,5.12,0,0,1,1,1.61,5,5,0,0,1,.36,1.87,4.85,4.85,0,0,1-.37,1.86,5.18,5.18,0,0,1-1,1.58,4.83,4.83,0,0,1-1.55,1.1,4.63,4.63,0,0,1-1.95.41h-3.41v5.19a.37.37,0,0,1-.42.42h-2.22Q245.91,91.65,245.91,91.23Zm5.88-12.5h-2.84V83.4h2.84a2.24,2.24,0,0,0,2.34-2.31,2.51,2.51,0,0,0-.17-.91,2.15,2.15,0,0,0-.48-.75,2.4,2.4,0,0,0-.74-.5A2.34,2.34,0,0,0,251.79,78.74Z"/><path class="cls-3" d="M275.61,83.86A7.81,7.81,0,0,1,275,87a8,8,0,0,1-1.72,2.54,8.13,8.13,0,0,1-2.55,1.71,8,8,0,0,1-6.22,0A8.05,8.05,0,0,1,262,89.52a8.08,8.08,0,0,1,0-11.34,8.07,8.07,0,0,1,2.53-1.71,8,8,0,0,1,6.22,0,8.15,8.15,0,0,1,2.55,1.71A8,8,0,0,1,275,80.72,7.87,7.87,0,0,1,275.61,83.86Zm-3.07,0a5.24,5.24,0,0,0-.38-2,5,5,0,0,0-1-1.61,4.9,4.9,0,0,0-1.56-1.08,4.78,4.78,0,0,0-2-.4,4.73,4.73,0,0,0-1.95.4,4.83,4.83,0,0,0-2.58,2.69,5.37,5.37,0,0,0-.37,2,5.3,5.3,0,0,0,.37,2,4.84,4.84,0,0,0,2.58,2.69,4.75,4.75,0,0,0,1.95.4,4.8,4.8,0,0,0,2-.4,4.9,4.9,0,0,0,1.56-1.08,5,5,0,0,0,1-1.61A5.18,5.18,0,0,0,272.54,83.86Z"/><path class="cls-3" d="M279.3,89.28a1.46,1.46,0,0,1-.25-.38q-.08-.19.15-.42l1.4-1.39A.38.38,0,0,1,281,87a1,1,0,0,1,.37.22q.31.31.7.64a6,6,0,0,0,.84.59,4.43,4.43,0,0,0,1,.42,3.81,3.81,0,0,0,1.11.16,3.35,3.35,0,0,0,1.11-.17,2.67,2.67,0,0,0,.83-.45,1.93,1.93,0,0,0,.52-.65,1.75,1.75,0,0,0,.18-.77,1.25,1.25,0,0,0-.3-.85,2.71,2.71,0,0,0-.74-.59,5.07,5.07,0,0,0-1-.4l-.93-.26A11,11,0,0,1,280.79,83a3.57,3.57,0,0,1-1.33-2.89,3.83,3.83,0,0,1,.41-1.76A4.1,4.1,0,0,1,281,77a5.43,5.43,0,0,1,1.79-.89,7.93,7.93,0,0,1,2.3-.32,5.7,5.7,0,0,1,2.65.65A8.71,8.71,0,0,1,290,78a.53.53,0,0,1,0,.82l-1.15,1.24a.38.38,0,0,1-.4.12A1.55,1.55,0,0,1,288,80l-.57-.46a6,6,0,0,0-.71-.47,4.8,4.8,0,0,0-.82-.37,2.73,2.73,0,0,0-.89-.15,5.69,5.69,0,0,0-.83.06,2.47,2.47,0,0,0-.77.24,1.6,1.6,0,0,0-.57.5,1.48,1.48,0,0,0-.23.87,1.13,1.13,0,0,0,.22.69,1.88,1.88,0,0,0,.63.51,6.28,6.28,0,0,0,1,.41q.55.19,1.22.38a20.39,20.39,0,0,1,2,.7,6.6,6.6,0,0,1,1.64,1,4.41,4.41,0,0,1,1.12,1.34,3.89,3.89,0,0,1,.42,1.87,4.12,4.12,0,0,1-.48,2,4.82,4.82,0,0,1-1.29,1.52,5.89,5.89,0,0,1-1.86,1,7.26,7.26,0,0,1-5.32-.38A8.28,8.28,0,0,1,279.3,89.28Z"/><path class="cls-2" d="M302.3,91.23V76.51q0-.44.42-.44H305c.26,0,.4.15.4.44V91.23c0,.28-.13.42-.4.42h-2.26A.37.37,0,0,1,302.3,91.23Z"/><path class="cls-2" d="M311.88,81.34a.85.85,0,0,1,.47.1.67.67,0,0,1,.24.29,1.87,1.87,0,0,1,.13.43q0,.24.11.51a5,5,0,0,1,1.3-1,3.66,3.66,0,0,1,1.84-.46,4.47,4.47,0,0,1,1.74.31,3.73,3.73,0,0,1,1.28.86,3.62,3.62,0,0,1,.79,1.31,5,5,0,0,1,.27,1.67v5.78a.5.5,0,0,1-.13.4.57.57,0,0,1-.38.11h-1.92c-.22,0-.36,0-.41-.09a.7.7,0,0,1-.07-.39V85.86a1.81,1.81,0,0,0-.54-1.38,1.95,1.95,0,0,0-2.06-.37,2.86,2.86,0,0,0-.68.39,2.34,2.34,0,0,0-.53.58,1.86,1.86,0,0,0-.28.71v5.4a.49.49,0,0,1-.11.37.65.65,0,0,1-.42.09h-1.88a.56.56,0,0,1-.41-.11.53.53,0,0,1-.09-.36V82a.56.56,0,0,1,.63-.63Z"/><path class="cls-2" d="M324.62,78.51q0-.54.65-.61l1.55-.23.15,0a.42.42,0,0,1,.4.18.88.88,0,0,1,.11.45v3.07h1.25a.55.55,0,0,1,.41.16.61.61,0,0,1,.16.45V83.1a.67.67,0,0,1-.16.49.55.55,0,0,1-.41.16h-1.25V91a.71.71,0,0,1-.13.45.53.53,0,0,1-.44.16h-1.76a.47.47,0,0,1-.42-.16.82.82,0,0,1-.11-.45V83.76h-.56q-.61,0-.61-.65V81.95a.54.54,0,0,1,.61-.61h.56Z"/><path class="cls-2" d="M337.53,89.4a2.43,2.43,0,0,0,.9-.13,5.12,5.12,0,0,0,.86-.38,2.28,2.28,0,0,0,.31-.19.48.48,0,0,1,.27-.1.37.37,0,0,1,.31.19L341,90a.57.57,0,0,1,.1.27.41.41,0,0,1-.1.28,2.37,2.37,0,0,1-.23.22,5.79,5.79,0,0,1-1.45.8,4.75,4.75,0,0,1-1.68.29,5.13,5.13,0,0,1-2.06-.42,5.36,5.36,0,0,1-1.69-1.14,5.51,5.51,0,0,1-1.15-1.71,5.34,5.34,0,0,1,0-4.17,5.76,5.76,0,0,1,1.13-1.72,5.33,5.33,0,0,1,1.65-1.18,4.79,4.79,0,0,1,2-.43,4.87,4.87,0,0,1,1.9.38,5.15,5.15,0,0,1,1.58,1A4.79,4.79,0,0,1,342,84.06a4.53,4.53,0,0,1,.39,1.86,3.72,3.72,0,0,1-.14,1.19.57.57,0,0,1-.6.37h-6.51a1.78,1.78,0,0,0,.27.82,2.34,2.34,0,0,0,.56.61,2.41,2.41,0,0,0,.74.38A2.65,2.65,0,0,0,337.53,89.4Zm-2.36-4h4.5a1.88,1.88,0,0,0-.68-1.35,2.31,2.31,0,0,0-1.58-.56,2.08,2.08,0,0,0-.75.15,2.45,2.45,0,0,0-.69.41,2.32,2.32,0,0,0-.52.61A2.09,2.09,0,0,0,335.16,85.44Z"/><path class="cls-2" d="M352.92,91.86a3.19,3.19,0,0,0,.11-.68q0-.41,0-.77a2.91,2.91,0,0,1-.94,1,2.79,2.79,0,0,1-1.59.41,4.87,4.87,0,0,1-3.61-1.54,5.18,5.18,0,0,1-1.06-1.7,5.75,5.75,0,0,1-.38-2.09,5.67,5.67,0,0,1,.38-2.08,5.09,5.09,0,0,1,1.06-1.68,5,5,0,0,1,1.6-1.12,4.88,4.88,0,0,1,2-.41,3,3,0,0,1,1.7.46,5.73,5.73,0,0,1,1.16,1l.19-.76a2.07,2.07,0,0,1,.19-.42q.08-.13.4-.13h1.21a.7.7,0,0,1,.43.15.51.51,0,0,1,.2.44v8.88a5.68,5.68,0,0,1-.41,2.23,4.59,4.59,0,0,1-1.13,1.63,4.94,4.94,0,0,1-1.68,1,6.14,6.14,0,0,1-2.09.35,7.45,7.45,0,0,1-1.92-.26,5.18,5.18,0,0,1-1-.37,3.81,3.81,0,0,1-.82-.55.85.85,0,0,1-.19-.22.56.56,0,0,1-.08-.3,1.11,1.11,0,0,1,0-.21.44.44,0,0,1,.13-.21l.84-1.13a.63.63,0,0,1,.42-.23.77.77,0,0,1,.44.19,2.07,2.07,0,0,0,1,.49,5.63,5.63,0,0,0,1,.12,2.6,2.6,0,0,0,.72-.11A3,3,0,0,0,352,93a2.29,2.29,0,0,0,.57-.46A1.43,1.43,0,0,0,352.92,91.86Zm-4.69-5.31a3.26,3.26,0,0,0,.18,1.09,2.63,2.63,0,0,0,.51.88,2.34,2.34,0,0,0,.79.59,2.45,2.45,0,0,0,1,.21,2.32,2.32,0,0,0,1.85-.79,2.9,2.9,0,0,0,.68-2,3.49,3.49,0,0,0-.17-1.08,2.6,2.6,0,0,0-.5-.9,2.52,2.52,0,0,0-2.9-.61,2.29,2.29,0,0,0-.79.61,2.87,2.87,0,0,0-.5.89A3.19,3.19,0,0,0,348.24,86.55Z"/><path class="cls-2" d="M362.44,81.93c0,.07,0,.21.11.41s.09.34.1.41a5.54,5.54,0,0,1,.45-.52,3.49,3.49,0,0,1,.6-.49,3.77,3.77,0,0,1,.72-.37,2.38,2.38,0,0,1,.85-.15h.2l.2,0a2.53,2.53,0,0,1,.67.16,5.54,5.54,0,0,1,.71.32,3.1,3.1,0,0,1,.57.38.54.54,0,0,1,.23.37.58.58,0,0,1-.1.29l-.84,1.37a.53.53,0,0,1-.44.29.71.71,0,0,1-.25-.07l-.36-.18a2.39,2.39,0,0,0-.51-.29,1.44,1.44,0,0,0-.51-.08A1.86,1.86,0,0,0,364,84a1.88,1.88,0,0,0-.62.47,2.17,2.17,0,0,0-.39.66,2.08,2.08,0,0,0-.14.72v5.31q0,.53-.56.53h-1.74q-.54,0-.54-.53v-9.2a.5.5,0,0,1,.17-.41.58.58,0,0,1,.38-.14h1.34a.41.41,0,0,1,.37.17A1.34,1.34,0,0,1,362.44,81.93Z"/><path class="cls-2" d="M377.67,91.08c0-.14,0-.25-.06-.35s0-.21-.06-.35c-.13.18-.26.36-.42.55a2.38,2.38,0,0,1-.54.47,2.94,2.94,0,0,1-.73.33,3.51,3.51,0,0,1-1,.13h0a5,5,0,0,1-2-.41,4.77,4.77,0,0,1-1.6-1.13,5.28,5.28,0,0,1-1-1.69,5.73,5.73,0,0,1-.38-2.1,6,6,0,0,1,.37-2.11,5,5,0,0,1,1-1.69,4.85,4.85,0,0,1,1.6-1.12,5.07,5.07,0,0,1,2.06-.41,2.93,2.93,0,0,1,1.73.44,5.38,5.38,0,0,1,1.1,1l.21-.8a1.14,1.14,0,0,1,.19-.47.53.53,0,0,1,.4-.12l1.17,0a.63.63,0,0,1,.42.16.51.51,0,0,1,.19.41v9.22a.45.45,0,0,1-.19.39.69.69,0,0,1-.42.14h-1.34a.5.5,0,0,1-.43-.16A1,1,0,0,1,377.67,91.08Zm-5.21-4.54a3.26,3.26,0,0,0,.18,1.09,2.65,2.65,0,0,0,.51.88,2.35,2.35,0,0,0,.79.59,2.45,2.45,0,0,0,1,.21,2.32,2.32,0,0,0,1.85-.79,2.9,2.9,0,0,0,.68-2,3.46,3.46,0,0,0-.17-1.08,2.6,2.6,0,0,0-.5-.9A2.43,2.43,0,0,0,376,84a2.45,2.45,0,0,0-1.07-.22,2.41,2.41,0,0,0-1,.22,2.28,2.28,0,0,0-.79.61,2.86,2.86,0,0,0-.5.89A3.19,3.19,0,0,0,372.46,86.55Z"/><path class="cls-2" d="M384.4,78.51q0-.54.65-.61l1.55-.23.15,0a.42.42,0,0,1,.4.18.88.88,0,0,1,.11.45v3.07h1.25a.55.55,0,0,1,.41.16.61.61,0,0,1,.16.45V83.1a.67.67,0,0,1-.16.49.55.55,0,0,1-.41.16h-1.25V91a.71.71,0,0,1-.13.45.53.53,0,0,1-.44.16h-1.76a.47.47,0,0,1-.42-.16.82.82,0,0,1-.11-.45V83.76h-.56q-.61,0-.61-.65V81.95a.54.54,0,0,1,.61-.61h.56Z"/><path class="cls-2" d="M392.14,78.27a1.61,1.61,0,0,1,1.61-1.62,1.54,1.54,0,0,1,1.15.47,1.58,1.58,0,0,1,.46,1.14,1.57,1.57,0,0,1-1.61,1.6,1.56,1.56,0,0,1-1.14-.46A1.52,1.52,0,0,1,392.14,78.27Zm3.1,3.57v9.32q0,.48-.52.48h-1.82a.43.43,0,0,1-.48-.48V81.85a.52.52,0,0,1,.13-.37.46.46,0,0,1,.36-.14h1.82a.55.55,0,0,1,.36.14A.45.45,0,0,1,395.24,81.85Z"/><path class="cls-2" d="M398.92,86.53a5.35,5.35,0,0,1,1.58-3.82,5.5,5.5,0,0,1,1.73-1.15,5.51,5.51,0,0,1,4.23,0,5.4,5.4,0,0,1,1.71,1.15,5.54,5.54,0,0,1,1.16,1.72,5.21,5.21,0,0,1,.43,2.1,5.14,5.14,0,0,1-.43,2.09,5.41,5.41,0,0,1-2.88,2.84,5.51,5.51,0,0,1-4.23,0,5.56,5.56,0,0,1-1.73-1.14,5.25,5.25,0,0,1-1.58-3.79Zm2.78,0a2.81,2.81,0,0,0,.2,1.06,2.78,2.78,0,0,0,.55.87,2.53,2.53,0,0,0,.84.59,2.71,2.71,0,0,0,2.09,0,2.53,2.53,0,0,0,.84-.59,2.94,2.94,0,0,0,.57-.87,2.79,2.79,0,0,0,0-2.12,2.94,2.94,0,0,0-.57-.87,2.68,2.68,0,0,0-.84-.6,2.6,2.6,0,0,0-2.09,0,2.68,2.68,0,0,0-.84.6,2.78,2.78,0,0,0-.55.87A2.81,2.81,0,0,0,401.7,86.55Z"/><path class="cls-2" d="M415.19,81.34a.85.85,0,0,1,.47.1.67.67,0,0,1,.24.29,1.87,1.87,0,0,1,.13.43q0,.24.11.51a5,5,0,0,1,1.3-1,3.66,3.66,0,0,1,1.84-.46,4.47,4.47,0,0,1,1.74.31,3.73,3.73,0,0,1,1.28.86,3.62,3.62,0,0,1,.79,1.31,5,5,0,0,1,.27,1.67v5.78a.5.5,0,0,1-.13.4.57.57,0,0,1-.38.11h-1.92c-.22,0-.36,0-.41-.09a.7.7,0,0,1-.07-.39V85.86a1.81,1.81,0,0,0-.54-1.38,1.95,1.95,0,0,0-2.06-.37,2.86,2.86,0,0,0-.68.39,2.34,2.34,0,0,0-.53.58,1.86,1.86,0,0,0-.28.71v5.4a.49.49,0,0,1-.11.37.65.65,0,0,1-.42.09h-1.88a.56.56,0,0,1-.41-.11.53.53,0,0,1-.09-.36V82a.56.56,0,0,1,.63-.63Z"/><path class="cls-2" d="M426.72,89.87a.39.39,0,0,1,0-.21.58.58,0,0,1,0-.15.25.25,0,0,1,.13-.15l1.28-1a.25.25,0,0,1,.23-.1.66.66,0,0,1,.33.15l.9.74a1.79,1.79,0,0,0,1.15.4,1.24,1.24,0,0,0,1-.3,1,1,0,0,0,.26-.7.55.55,0,0,0-.19-.41,2.37,2.37,0,0,0-.44-.33,3.17,3.17,0,0,0-.51-.24l-.43-.14a6.1,6.1,0,0,1-2.65-1.25,2.64,2.64,0,0,1-.81-2,2.42,2.42,0,0,1,.28-1.14A3,3,0,0,1,428,82a4,4,0,0,1,1.23-.65,5,5,0,0,1,1.6-.24,4.88,4.88,0,0,1,1.88.35,5,5,0,0,1,1.46.91,1,1,0,0,1,.38.63c0,.06-.08.16-.23.32s-.32.31-.51.46-.37.29-.54.41a.91.91,0,0,1-.35.18.53.53,0,0,1-.36-.19,5.24,5.24,0,0,0-.69-.49,1.92,1.92,0,0,0-1-.24,1.88,1.88,0,0,0-.74.15.54.54,0,0,0-.35.55.67.67,0,0,0,.43.6,7.44,7.44,0,0,0,1.18.45,15.29,15.29,0,0,1,1.45.58,4.72,4.72,0,0,1,1.12.7,2.87,2.87,0,0,1,.71.91,2.72,2.72,0,0,1,.25,1.21,2.86,2.86,0,0,1-.35,1.42,3,3,0,0,1-.93,1,4.33,4.33,0,0,1-1.35.62,5.94,5.94,0,0,1-1.58.21,5.34,5.34,0,0,1-2.07-.4A4.49,4.49,0,0,1,427,90.37,1.7,1.7,0,0,1,426.72,89.87Z"/><path class="cls-1" d="M139.73,28.21,154.27,9.29H169L150.8,31l19.9,24.15H155.24l-15.52-19.9v19.9H127.8V9.29h11.92Z"/><path class="cls-1" d="M185.67,41.41q0,7.12,6.69,7.12a6,6,0,0,0,5.42-2.92h10.65Q205.2,56.32,192.3,56.32a21.18,21.18,0,0,1-7.24-1.19,16.16,16.16,0,0,1-5.63-3.38,15,15,0,0,1-3.62-5.23,17.44,17.44,0,0,1-1.28-6.81,19.27,19.27,0,0,1,1.22-7,14.76,14.76,0,0,1,3.47-5.32A15.35,15.35,0,0,1,184.66,24a20.6,20.6,0,0,1,7.21-1.19A20.16,20.16,0,0,1,199,24a14.43,14.43,0,0,1,5.35,3.44,15,15,0,0,1,3.35,5.51,21.82,21.82,0,0,1,1.16,7.33v1.16ZM198.56,35a6.63,6.63,0,0,0-2.25-3.71,7,7,0,0,0-8.31-.06A6.06,6.06,0,0,0,186,35Z"/><path class="cls-1" d="M218.16,24h11v4a12,12,0,0,1,4.56-3.68,14.27,14.27,0,0,1,5.42-.94,13.53,13.53,0,0,1,5.63,1.07,11.24,11.24,0,0,1,4,3,8.67,8.67,0,0,1,1.83,3.53,18.4,18.4,0,0,1,.49,4.44V55.16h-11V39.4a17,17,0,0,0-.33-3.74,4.65,4.65,0,0,0-1.19-2.28,4.2,4.2,0,0,0-1.64-1,6.14,6.14,0,0,0-1.95-.3,5.44,5.44,0,0,0-4.29,1.67,6.94,6.94,0,0,0-1.49,4.78V55.16h-11Z"/><path class="cls-1" d="M269,24l7.48,16.43L284.29,24h6.94L299,40.87,306.86,24h12.23L302.79,55.16h-7.36l-7.79-17.1-7.42,17.1h-7.48L256.73,24Z"/><path class="cls-1" d="M348.48,24h11.07V55.16H348.48V51.7a11.55,11.55,0,0,1-9.55,4.44,15.51,15.51,0,0,1-6.27-1.25,15.07,15.07,0,0,1-5-3.5,16.12,16.12,0,0,1-3.32-5.29,18.1,18.1,0,0,1-1.19-6.63,17.6,17.6,0,0,1,1.16-6.36,16.35,16.35,0,0,1,3.22-5.26,15.22,15.22,0,0,1,4.93-3.56A15,15,0,0,1,338.8,23a12.71,12.71,0,0,1,9.67,4.08ZM334.61,39.47a7.28,7.28,0,0,0,2,5.11,6.68,6.68,0,0,0,2.25,1.52,7.26,7.26,0,0,0,2.83.55,7.11,7.11,0,0,0,2.77-.55,6.7,6.7,0,0,0,2.25-1.52,7.88,7.88,0,0,0,1.52-2.25,6.57,6.57,0,0,0,.58-2.74,6.78,6.78,0,0,0-.58-2.77,7.77,7.77,0,0,0-1.52-2.28A6.7,6.7,0,0,0,344.49,33a7.09,7.09,0,0,0-2.77-.55,7.24,7.24,0,0,0-2.83.55,6.68,6.68,0,0,0-2.25,1.52,7.51,7.51,0,0,0-1.49,2.22A6.66,6.66,0,0,0,334.61,39.47Z"/><path class="cls-1" d="M370.08,24h11v5.11a12.65,12.65,0,0,1,4.32-4.29,11.62,11.62,0,0,1,6-1.49h.94a6.73,6.73,0,0,1,1.19.12V33.93a10.47,10.47,0,0,0-4.75-1.09A7.09,7.09,0,0,0,383,35.12q-1.92,2.28-1.92,6.66V55.16h-11Z"/><path class="cls-1" d="M411.75,41.41q0,7.12,6.69,7.12a6,6,0,0,0,5.42-2.92h10.65q-3.23,10.71-16.12,10.71a21.18,21.18,0,0,1-7.24-1.19,16.16,16.16,0,0,1-5.63-3.38,15.06,15.06,0,0,1-3.62-5.23,17.44,17.44,0,0,1-1.28-6.81,19.28,19.28,0,0,1,1.22-7,14.76,14.76,0,0,1,3.47-5.32A15.35,15.35,0,0,1,410.75,24,20.6,20.6,0,0,1,418,22.8,20.16,20.16,0,0,1,425.08,24a14.42,14.42,0,0,1,5.35,3.44,15,15,0,0,1,3.35,5.51,21.85,21.85,0,0,1,1.16,7.33v1.16ZM424.65,35a6.63,6.63,0,0,0-2.25-3.71,7,7,0,0,0-8.3-.06,6.06,6.06,0,0,0-2,3.77Z"/></g></g></svg>